<?xml version="1.0" encoding="UTF-8" standalone="no"?>
<!DOCTYPE svg PUBLIC "-//W3C//DTD SVG 1.1//EN" "http://www.w3.org/Graphics/SVG/1.1/DTD/svg11.dtd">
<svg width="100%" height="100%" viewBox="0 0 786 301" version="1.1" xmlns="http://www.w3.org/2000/svg" xmlns:xlink="http://www.w3.org/1999/xlink" xml:space="preserve" xmlns:serif="http://www.serif.com/" style="fill-rule:evenodd;clip-rule:evenodd;stroke-linejoin:round;stroke-miterlimit:2;">
    <g transform="matrix(0.999988,0,0,0.999988,-121.034,-245.585)">
        <path d="M245.305,533.503C227.708,540.175 210.522,537.349 193.402,533.171C179.148,529.693 166.203,523.468 154.868,514.031C139.359,501.12 131.18,483.874 125.92,464.955C119.326,441.238 120.356,417.298 123.536,393.179C127.222,365.232 134.927,338.545 147.716,313.489C159.096,291.191 174.474,272.146 196.324,259.08C211.785,249.835 228.342,243.96 246.575,245.988C263.921,247.918 278.457,254.955 285.179,274.88C285.699,276.421 285.95,278.163 285.851,279.782C285.546,284.723 281.907,286.664 277.49,284.381C269.957,280.487 262.469,276.608 253.668,276.298C238.355,275.759 226.023,282.695 214.885,292.024C196.949,307.046 186.371,326.621 180.008,348.966C173.821,370.693 170.574,392.812 169.369,415.259C168.431,432.723 170.393,449.792 178.282,465.795C183.119,475.606 191.731,480.719 201.245,484.676C209.248,488.005 217.793,489.586 226.18,491.602C233.428,493.344 240.413,490.855 247.24,489.009C257.247,486.303 267.189,485.554 277.301,487.78C283.769,489.204 285.571,495.042 282.184,502.629C276.424,515.533 265.834,523.299 253.783,529.521C251.126,530.892 248.365,532.063 245.305,533.503Z" style="fill-rule:nonzero;"/>
    </g>
    <g transform="matrix(0.999988,0,0,0.999988,-121.034,-245.585)">
        <path d="M675.796,417.713C667.005,420.586 658.234,419.935 649.643,420.746C645.629,421.125 644.11,422.443 643.753,426.782C641.289,456.72 642.252,486.708 642.06,516.676C642.02,522.866 641.594,528.93 640.105,534.975C637.394,545.982 625.888,549.985 617.185,542.72C611.097,537.639 608.658,530.483 606.99,523.174C601.916,500.948 601.799,478.307 601.864,455.666C601.891,446.004 601.723,436.34 601.871,426.68C601.93,422.867 600.453,421.332 596.674,421.079C585.9,420.358 575.095,419.791 564.545,417.165C561.451,416.395 558.416,415.397 555.919,413.431C552.667,410.871 551.175,407.379 552.177,403.236C553.401,398.181 557.028,395.604 561.827,394.156C571.918,391.112 582.271,391.877 592.571,391.78C603.505,391.677 602.432,393.059 602.83,381.483C603.722,355.53 604.515,329.568 605.946,303.642C606.418,295.08 606.597,286.382 609.228,277.963C611.572,270.465 616.653,265.153 623.083,264.851C630.211,264.517 635.005,268.39 637.791,276.515C640.685,284.957 641.673,293.812 641.815,302.533C642.281,331.171 645.245,359.739 644.16,388.408C644.008,392.409 645.835,393.773 649.516,393.708C658.2,393.555 666.784,394.118 675.218,396.567C679.608,397.842 683.658,399.563 687.148,402.486C690.525,405.314 690.949,409.173 689.786,412.983C688.629,416.772 685.309,417.415 681.685,417.195C679.876,417.085 678.04,417.447 675.796,417.713Z" style="fill-rule:nonzero;"/>
    </g>
    <g transform="matrix(0.999988,0,0,0.999988,-121.034,-245.585)">
        <path d="M392.525,518.511C391.124,517.294 389.908,516.391 388.898,515.298C386.48,512.683 384.621,513.059 382.456,515.808C364.327,538.827 334.484,527.177 324.597,507.226C316.881,491.655 321.292,477.385 328.347,463.449C340.745,438.958 361.979,424.95 387.13,416.483C394.142,414.122 403.111,413.595 408.129,420.142C413.79,427.528 421.765,433.76 423.409,443.872C423.761,446.035 424.009,448.124 423.632,450.298C420.979,465.629 420.454,481.025 422.135,496.506C422.505,499.914 424.227,502.761 425.373,505.85C425.89,507.245 426.632,508.593 426.912,510.032C428.986,520.692 419.621,529.053 408.725,526.514C402.78,525.128 397.453,522.677 392.525,518.511M364.687,471.222C361.428,476.256 358.605,481.511 357.389,487.437C357.036,489.16 356.833,491.348 358.89,492.285C360.982,493.238 362.371,491.614 363.433,490.144C366.54,485.844 369.604,481.507 372.521,477.077C376.093,471.651 375.994,465.33 377.426,458.221C371.911,462.176 368.653,466.552 364.687,471.222Z" style="fill-rule:nonzero;"/>
    </g>
    <g transform="matrix(0.999988,0,0,0.999988,-121.034,-245.585)">
        <path d="M851.654,406.448C864.898,405.97 877.648,405.258 890.326,408.401C903.284,411.613 910.238,424.117 905.152,436.453C903.589,440.243 900.23,439.828 897.661,438.083C894.974,436.258 892.549,436.102 889.694,436.978C878.594,440.385 867.059,442.215 856.119,446.199C851.131,448.015 845.949,449.5 841.279,451.944C833.36,456.089 829.165,462.67 828.932,472.022C828.583,486.051 830.611,499.904 831.166,513.85C831.646,525.914 826.014,533.655 816.696,534.987C806.814,536.4 797.188,529.429 793.806,518.886C787.542,499.362 786.161,479.346 789.215,459.297C792.777,435.913 806.358,418.783 832.26,410.685C838.461,408.747 844.749,407.26 851.654,406.448Z" style="fill-rule:nonzero;"/>
    </g>
    <g transform="matrix(0.999988,0,0,0.999988,-121.034,-245.585)">
        <path d="M676.884,484.668C678.403,458.186 687.645,435.728 707.983,418.727C720.539,408.23 737.474,407.126 750.167,415.382C763.695,424.182 766.042,436.78 760.671,450.261C753.758,467.611 739.395,475.407 721.309,477.157C718.685,477.411 714.737,475.34 713.747,478.784C712.658,482.575 713.87,486.736 717.109,489.673C721.076,493.268 725.784,495.816 730.302,498.606C739.649,504.376 749.212,509.611 760.416,510.97C764.63,511.481 765.598,514.898 762.502,518.19C757.314,523.706 750.903,526.981 743.327,527.784C726.097,529.612 709.851,526.871 695.336,516.897C684.221,509.259 678.783,498.189 676.884,484.668M729.874,437.468C727.669,438.934 725.21,440.23 725.251,443.73C728.76,443.392 731.017,441.926 732.793,439.632C733.406,438.842 734.01,437.918 733.163,437.001C732.309,436.077 731.353,436.748 729.874,437.468Z" style="fill-rule:nonzero;"/>
    </g>
    <g transform="matrix(0.999988,0,0,0.999988,-121.034,-245.585)">
        <path d="M489.422,523.392C480.614,531.27 468.422,527.982 465.68,517.022C461.513,500.36 462.563,483.332 463.294,466.423C463.687,457.338 465.996,448.41 465.884,439.185C465.797,431.948 473.322,425.723 479.821,428.252C485.564,430.487 490.174,428.92 495.082,427.274C506.541,423.429 518.094,424.54 529.619,426.412C538.907,427.921 547.597,431.076 554.734,437.599C556.902,439.58 558.417,441.703 558.463,444.857C558.51,448.186 557.292,450.075 554.022,451.067C543.479,454.266 532.818,456.294 521.717,455.984C515.604,455.812 509.429,455.371 503.407,457.386C496.736,459.617 494.184,462.549 494.107,469.739C493.966,482.886 493.953,496.037 494.109,509.184C494.171,514.411 492.88,519.019 489.422,523.392Z" style="fill-rule:nonzero;"/>
    </g>
</svg>
